<svg data-v-423bf9ae="" xmlns="http://www.w3.org/2000/svg" viewBox="0 0 580 90" class="iconLeft"><!----><!----><!----><g data-v-423bf9ae="" id="8fb6cbcd-7e84-48a7-91c7-c7b6200c91e6" fill="#1F1E1A" transform="matrix(6.054490506946714,0,0,6.054490506946714,67.21707207427102,-10.428858020699465)"><path d="M7.64 5.15L7.64 5.15Q7.64 5.25 7.59 5.31L7.59 5.31L7.59 5.31Q7.53 5.36 7.43 5.36L7.43 5.36L2.56 5.36L2.56 5.36Q2.49 5.36 2.49 5.43L2.49 5.43L2.49 8.41L2.49 8.41Q2.49 8.48 2.56 8.48L2.56 8.48L5.88 8.48L5.88 8.48Q5.98 8.48 6.03 8.54L6.03 8.54L6.03 8.54Q6.09 8.60 6.09 8.69L6.09 8.69L6.09 9.44L6.09 9.44Q6.09 9.53 6.03 9.59L6.03 9.59L6.03 9.59Q5.98 9.65 5.88 9.65L5.88 9.65L2.56 9.65L2.56 9.65Q2.49 9.65 2.49 9.72L2.49 9.72L2.49 13.79L2.49 13.79Q2.49 13.89 2.44 13.94L2.44 13.94L2.44 13.94Q2.38 14 2.28 14L2.28 14L1.36 14L1.36 14Q1.26 14 1.20 13.94L1.20 13.94L1.20 13.94Q1.15 13.89 1.15 13.79L1.15 13.79L1.15 4.41L1.15 4.41Q1.15 4.31 1.20 4.26L1.20 4.26L1.20 4.26Q1.26 4.20 1.36 4.20L1.36 4.20L7.43 4.20L7.43 4.20Q7.53 4.20 7.59 4.26L7.59 4.26L7.59 4.26Q7.64 4.31 7.64 4.41L7.64 4.41L7.64 5.15ZM11.51 6.76L11.51 6.76Q12.36 6.76 13.00 7.06L13.00 7.06L13.00 7.06Q13.64 7.36 13.98 7.90L13.98 7.90L13.98 7.90Q14.32 8.44 14.32 9.13L14.32 9.13L14.32 13.79L14.32 13.79Q14.32 13.89 14.27 13.94L14.27 13.94L14.27 13.94Q14.21 14 14.11 14L14.11 14L13.19 14L13.19 14Q13.09 14 13.03 13.94L13.03 13.94L13.03 13.94Q12.98 13.89 12.98 13.79L12.98 13.79L12.98 13.40L12.98 13.40Q12.98 13.36 12.95 13.34L12.95 13.34L12.95 13.34Q12.92 13.33 12.89 13.36L12.89 13.36L12.89 13.36Q12.50 13.72 11.96 13.92L11.96 13.92L11.96 13.92Q11.42 14.11 10.79 14.11L10.79 14.11L10.79 14.11Q9.77 14.11 9.11 13.59L9.11 13.59L9.11 13.59Q8.46 13.06 8.46 12.00L8.46 12.00L8.46 12.00Q8.46 10.91 9.22 10.28L9.22 10.28L9.22 10.28Q9.98 9.66 11.35 9.66L11.35 9.66L12.91 9.66L12.91 9.66Q12.98 9.66 12.98 9.59L12.98 9.59L12.98 9.23L12.98 9.23Q12.98 8.61 12.62 8.27L12.62 8.27L12.62 8.27Q12.26 7.92 11.54 7.92L11.54 7.92L11.54 7.92Q10.96 7.92 10.61 8.13L10.61 8.13L10.61 8.13Q10.25 8.34 10.14 8.72L10.14 8.72L10.14 8.72Q10.08 8.90 9.90 8.89L9.90 8.89L8.89 8.76L8.89 8.76Q8.79 8.75 8.74 8.70L8.74 8.70L8.74 8.70Q8.68 8.65 8.69 8.58L8.69 8.58L8.69 8.58Q8.82 7.78 9.60 7.27L9.60 7.27L9.60 7.27Q10.37 6.76 11.51 6.76L11.51 6.76ZM11.13 12.98L11.13 12.98Q11.87 12.98 12.43 12.59L12.43 12.59L12.43 12.59Q12.98 12.19 12.98 11.59L12.98 11.59L12.98 10.78L12.98 10.78Q12.98 10.71 12.91 10.71L12.91 10.71L11.61 10.71L11.61 10.71Q10.78 10.71 10.29 11.03L10.29 11.03L10.29 11.03Q9.80 11.35 9.80 11.93L9.80 11.93L9.80 11.93Q9.80 12.45 10.17 12.71L10.17 12.71L10.17 12.71Q10.54 12.98 11.13 12.98L11.13 12.98ZM18.98 14.11L18.98 14.11Q17.92 14.11 17.16 13.57L17.16 13.57L17.16 13.57Q16.41 13.03 16.13 12.11L16.13 12.11L16.13 12.11Q15.92 11.47 15.92 10.42L15.92 10.42L15.92 10.42Q15.92 9.45 16.13 8.72L16.13 8.72L16.13 8.72Q16.41 7.83 17.17 7.29L17.17 7.29L17.17 7.29Q17.93 6.76 18.98 6.76L18.98 6.76L18.98 6.76Q20.03 6.76 20.82 7.29L20.82 7.29L20.82 7.29Q21.60 7.83 21.84 8.64L21.84 8.64L21.84 8.64Q21.91 8.82 21.94 9.03L21.94 9.03L21.94 9.06L21.94 9.06Q21.94 9.23 21.76 9.25L21.76 9.25L20.85 9.38L20.80 9.38L20.80 9.38Q20.65 9.38 20.61 9.23L20.61 9.23L20.57 9.04L20.57 9.04Q20.45 8.57 20.02 8.25L20.02 8.25L20.02 8.25Q19.59 7.92 18.97 7.92L18.97 7.92L18.97 7.92Q18.37 7.92 17.95 8.25L17.95 8.25L17.95 8.25Q17.53 8.57 17.40 9.10L17.40 9.10L17.40 9.10Q17.28 9.60 17.28 10.43L17.28 10.43L17.28 10.43Q17.28 11.24 17.40 11.75L17.40 11.75L17.40 11.75Q17.54 12.31 17.95 12.63L17.95 12.63L17.95 12.63Q18.37 12.95 18.97 12.95L18.97 12.95L18.97 12.95Q19.57 12.95 20.01 12.63L20.01 12.63L20.01 12.63Q20.44 12.32 20.57 11.83L20.57 11.83L20.58 11.77L20.58 11.76L20.58 11.76Q20.59 11.69 20.66 11.63L20.66 11.63L20.66 11.63Q20.73 11.56 20.82 11.58L20.82 11.58L21.73 11.73L21.73 11.73Q21.92 11.77 21.91 11.96L21.91 11.96L21.91 11.96Q21.90 12.01 21.84 12.22L21.84 12.22L21.84 12.22Q21.60 13.08 20.82 13.59L20.82 13.59L20.82 13.59Q20.03 14.11 18.98 14.11L18.98 14.11ZM26.49 12.96L26.49 12.96Q27.62 12.95 28.11 12.08L28.11 12.08L28.11 12.08Q28.18 11.96 28.27 11.96L28.27 11.96L28.27 11.96Q28.34 11.96 28.39 12.00L28.39 12.00L28.97 12.35L28.97 12.35Q29.08 12.42 29.08 12.53L29.08 12.53L29.05 12.64L29.05 12.64Q28.67 13.33 27.98 13.72L27.98 13.72L27.98 13.72Q27.29 14.11 26.36 14.11L26.36 14.11L26.36 14.11Q25.37 14.11 24.68 13.67L24.68 13.67L24.68 13.67Q24.00 13.23 23.65 12.40L23.65 12.40L23.65 12.40Q23.30 11.55 23.30 10.40L23.30 10.40L23.30 10.40Q23.30 9.38 23.45 8.85L23.45 8.85L23.45 8.85Q23.70 7.88 24.46 7.32L24.46 7.32L24.46 7.32Q25.21 6.76 26.29 6.76L26.29 6.76L26.29 6.76Q27.62 6.76 28.32 7.46L28.32 7.46L28.32 7.46Q29.02 8.15 29.23 9.46L29.23 9.46L29.23 9.46Q29.30 9.98 29.33 10.72L29.33 10.72L29.33 10.72Q29.33 10.93 29.12 10.93L29.12 10.93L24.70 10.93L24.70 10.93Q24.63 10.93 24.63 11.00L24.63 11.00L24.63 11.00Q24.65 11.54 24.72 11.76L24.72 11.76L24.72 11.76Q24.88 12.32 25.34 12.64L25.34 12.64L25.34 12.64Q25.80 12.96 26.49 12.96L26.49 12.96ZM26.29 7.92L26.29 7.92Q25.68 7.92 25.29 8.22L25.29 8.22L25.29 8.22Q24.91 8.51 24.77 9.03L24.77 9.03L24.77 9.03Q24.67 9.34 24.64 9.81L24.64 9.81L24.64 9.81Q24.64 9.88 24.71 9.88L24.71 9.88L27.89 9.88L27.89 9.88Q27.96 9.88 27.96 9.81L27.96 9.81L27.96 9.81Q27.93 9.35 27.87 9.13L27.87 9.13L27.87 9.13Q27.73 8.58 27.32 8.25L27.32 8.25L27.32 8.25Q26.91 7.92 26.29 7.92L26.29 7.92ZM33.53 14.08L33.53 14.08Q32.70 14.08 32.07 13.83L32.07 13.83L32.07 13.83Q31.43 13.58 31.08 13.14L31.08 13.14L31.08 13.14Q30.73 12.70 30.73 12.17L30.73 12.17L30.73 12.08L30.73 12.08Q30.73 11.98 30.79 11.93L30.79 11.93L30.79 11.93Q30.84 11.87 30.94 11.87L30.94 11.87L31.81 11.87L31.81 11.87Q31.91 11.87 31.96 11.90L31.96 11.90L31.96 11.90Q32.02 11.93 32.02 11.97L32.02 11.97L32.02 12.08L32.02 12.08Q32.02 12.47 32.45 12.77L32.45 12.77L32.45 12.77Q32.87 13.06 33.52 13.06L33.52 13.06L33.52 13.06Q34.16 13.06 34.55 12.79L34.55 12.79L34.55 12.79Q34.94 12.52 34.94 12.10L34.94 12.10L34.94 12.10Q34.94 11.69 34.58 11.49L34.58 11.49L34.58 11.49Q34.22 11.28 33.40 11.06L33.40 11.06L33.40 11.06Q32.61 10.84 32.07 10.61L32.07 10.61L32.07 10.61Q31.53 10.37 31.16 9.95L31.16 9.95L31.16 9.95Q30.79 9.52 30.79 8.85L30.79 8.85L30.79 8.85Q30.79 7.91 31.52 7.36L31.52 7.36L31.52 7.36Q32.26 6.80 33.47 6.80L33.47 6.80L33.47 6.80Q34.29 6.80 34.91 7.06L34.91 7.06L34.91 7.06Q35.53 7.32 35.87 7.78L35.87 7.78L35.87 7.78Q36.20 8.25 36.20 8.82L36.20 8.82L36.20 8.82Q36.20 8.90 36.15 8.95L36.15 8.95L36.15 8.95Q36.09 9.00 35.99 9.00L35.99 9.00L35.15 9.00L35.15 9.00Q35.06 9.00 35 8.97L35 8.97L35 8.97Q34.94 8.95 34.94 8.90L34.94 8.90L34.94 8.82L34.94 8.82Q34.94 8.41 34.55 8.14L34.55 8.14L34.55 8.14Q34.15 7.87 33.46 7.87L33.46 7.87L33.46 7.87Q32.84 7.87 32.46 8.11L32.46 8.11L32.46 8.11Q32.07 8.34 32.07 8.75L32.07 8.75L32.07 8.75Q32.07 9.16 32.45 9.37L32.45 9.37L32.45 9.37Q32.82 9.58 33.64 9.81L33.64 9.81L33.64 9.81Q34.45 10.04 34.99 10.25L34.99 10.25L34.99 10.25Q35.53 10.47 35.91 10.90L35.91 10.90L35.91 10.90Q36.29 11.33 36.29 12.01L36.29 12.01L36.29 12.01Q36.29 12.96 35.54 13.52L35.54 13.52L35.54 13.52Q34.79 14.08 33.53 14.08L33.53 14.08ZM43.58 14.11L43.58 14.11Q42.53 14.11 41.77 13.59L41.77 13.59L41.77 13.59Q41.01 13.06 40.70 12.12L40.70 12.12L40.70 12.12Q40.45 11.37 40.45 10.42L40.45 10.42L40.45 10.42Q40.45 9.42 40.68 8.74L40.68 8.74L40.68 8.74Q40.99 7.81 41.76 7.29L41.76 7.29L41.76 7.29Q42.53 6.76 43.60 6.76L43.60 6.76L43.60 6.76Q44.60 6.76 45.35 7.29L45.35 7.29L45.35 7.29Q46.10 7.81 46.42 8.72L46.42 8.72L46.42 8.72Q46.68 9.44 46.68 10.40L46.68 10.40L46.68 10.40Q46.68 11.38 46.42 12.12L46.42 12.12L46.42 12.12Q46.12 13.06 45.36 13.59L45.36 13.59L45.36 13.59Q44.60 14.11 43.58 14.11L43.58 14.11ZM43.58 12.95L43.58 12.95Q44.14 12.95 44.56 12.63L44.56 12.63L44.56 12.63Q44.98 12.32 45.16 11.75L45.16 11.75L45.16 11.75Q45.32 11.21 45.32 10.43L45.32 10.43L45.32 10.43Q45.32 9.65 45.18 9.13L45.18 9.13L45.18 9.13Q45.00 8.55 44.58 8.24L44.58 8.24L44.58 8.24Q44.16 7.92 43.55 7.92L43.55 7.92L43.55 7.92Q42.98 7.92 42.56 8.24L42.56 8.24L42.56 8.24Q42.14 8.55 41.96 9.13L41.96 9.13L41.96 9.13Q41.80 9.62 41.80 10.43L41.80 10.43L41.80 10.43Q41.80 11.24 41.96 11.75L41.96 11.75L41.96 11.75Q42.13 12.32 42.55 12.63L42.55 12.63L42.55 12.63Q42.98 12.95 43.58 12.95L43.58 12.95ZM51.56 5.38L51.56 5.38Q50.86 5.38 50.61 5.64L50.61 5.64L50.61 5.64Q50.36 5.91 50.36 6.65L50.36 6.65L50.36 6.80L50.36 6.80Q50.36 6.87 50.43 6.87L50.43 6.87L51.81 6.87L51.81 6.87Q51.91 6.87 51.97 6.93L51.97 6.93L51.97 6.93Q52.02 6.99 52.02 7.08L52.02 7.08L52.02 7.90L52.02 7.90Q52.02 7.99 51.97 8.05L51.97 8.05L51.97 8.05Q51.91 8.11 51.81 8.11L51.81 8.11L50.43 8.11L50.43 8.11Q50.36 8.11 50.36 8.18L50.36 8.18L50.36 13.79L50.36 13.79Q50.36 13.89 50.30 13.94L50.30 13.94L50.30 13.94Q50.25 14 50.15 14L50.15 14L49.22 14L49.22 14Q49.13 14 49.07 13.94L49.07 13.94L49.07 13.94Q49.01 13.89 49.01 13.79L49.01 13.79L49.01 8.18L49.01 8.18Q49.01 8.11 48.94 8.11L48.94 8.11L48.09 8.11L48.09 8.11Q47.99 8.11 47.94 8.05L47.94 8.05L47.94 8.05Q47.88 7.99 47.88 7.90L47.88 7.90L47.88 7.08L47.88 7.08Q47.88 6.99 47.94 6.93L47.94 6.93L47.94 6.93Q47.99 6.87 48.09 6.87L48.09 6.87L48.94 6.87L48.94 6.87Q49.01 6.87 49.01 6.80L49.01 6.80L49.01 6.57L49.01 6.57Q49.01 5.64 49.23 5.14L49.23 5.14L49.23 5.14Q49.45 4.63 49.97 4.42L49.97 4.42L49.97 4.42Q50.48 4.20 51.42 4.20L51.42 4.20L51.83 4.20L51.83 4.20Q51.93 4.20 51.98 4.26L51.98 4.26L51.98 4.26Q52.04 4.31 52.04 4.41L52.04 4.41L52.04 5.17L52.04 5.17Q52.04 5.26 51.98 5.32L51.98 5.32L51.98 5.32Q51.93 5.38 51.83 5.38L51.83 5.38L51.56 5.38ZM56.74 14L56.74 14Q56.64 14 56.59 13.94L56.59 13.94L56.59 13.94Q56.53 13.89 56.53 13.79L56.53 13.79L56.53 4.41L56.53 4.41Q56.53 4.31 56.59 4.26L56.59 4.26L56.59 4.26Q56.64 4.20 56.74 4.20L56.74 4.20L57.67 4.20L57.67 4.20Q57.76 4.20 57.82 4.26L57.82 4.26L57.82 4.26Q57.88 4.31 57.88 4.41L57.88 4.41L57.88 12.77L57.88 12.77Q57.88 12.84 57.95 12.84L57.95 12.84L62.69 12.84L62.69 12.84Q62.79 12.84 62.85 12.89L62.85 12.89L62.85 12.89Q62.90 12.95 62.90 13.05L62.90 13.05L62.90 13.79L62.90 13.79Q62.90 13.89 62.85 13.94L62.85 13.94L62.85 13.94Q62.79 14 62.69 14L62.69 14L56.74 14ZM66.96 6.76L66.96 6.76Q67.82 6.76 68.45 7.06L68.45 7.06L68.45 7.06Q69.09 7.36 69.43 7.90L69.43 7.90L69.43 7.90Q69.78 8.44 69.78 9.13L69.78 9.13L69.78 13.79L69.78 13.79Q69.78 13.89 69.72 13.94L69.72 13.94L69.72 13.94Q69.66 14 69.57 14L69.57 14L68.64 14L68.64 14Q68.54 14 68.49 13.94L68.49 13.94L68.49 13.94Q68.43 13.89 68.43 13.79L68.43 13.79L68.43 13.40L68.43 13.40Q68.43 13.36 68.40 13.34L68.40 13.34L68.40 13.34Q68.38 13.33 68.35 13.36L68.35 13.36L68.35 13.36Q67.96 13.72 67.42 13.92L67.42 13.92L67.42 13.92Q66.88 14.11 66.25 14.11L66.25 14.11L66.25 14.11Q65.23 14.11 64.57 13.59L64.57 13.59L64.57 13.59Q63.91 13.06 63.91 12.00L63.91 12.00L63.91 12.00Q63.91 10.91 64.67 10.28L64.67 10.28L64.67 10.28Q65.44 9.66 66.81 9.66L66.81 9.66L68.36 9.66L68.36 9.66Q68.43 9.66 68.43 9.59L68.43 9.59L68.43 9.23L68.43 9.23Q68.43 8.61 68.07 8.27L68.07 8.27L68.07 8.27Q67.72 7.92 66.99 7.92L66.99 7.92L66.99 7.92Q66.42 7.92 66.06 8.13L66.06 8.13L66.06 8.13Q65.70 8.34 65.59 8.72L65.59 8.72L65.59 8.72Q65.53 8.90 65.35 8.89L65.35 8.89L64.34 8.76L64.34 8.76Q64.25 8.75 64.19 8.70L64.19 8.70L64.19 8.70Q64.13 8.65 64.15 8.58L64.15 8.58L64.15 8.58Q64.27 7.78 65.05 7.27L65.05 7.27L65.05 7.27Q65.83 6.76 66.96 6.76L66.96 6.76ZM66.58 12.98L66.58 12.98Q67.33 12.98 67.88 12.59L67.88 12.59L67.88 12.59Q68.43 12.19 68.43 11.59L68.43 11.59L68.43 10.78L68.43 10.78Q68.43 10.71 68.36 10.71L68.36 10.71L67.06 10.71L67.06 10.71Q66.23 10.71 65.74 11.03L65.74 11.03L65.74 11.03Q65.25 11.35 65.25 11.93L65.25 11.93L65.25 11.93Q65.25 12.45 65.62 12.71L65.62 12.71L65.62 12.71Q66.00 12.98 66.58 12.98L66.58 12.98ZM74.76 6.78L74.76 6.78Q75.91 6.78 76.58 7.44L76.58 7.44L76.58 7.44Q77.25 8.11 77.25 9.24L77.25 9.24L77.25 13.79L77.25 13.79Q77.25 13.89 77.20 13.94L77.20 13.94L77.20 13.94Q77.14 14 77.04 14L77.04 14L76.12 14L76.12 14Q76.02 14 75.96 13.94L75.96 13.94L75.96 13.94Q75.91 13.89 75.91 13.79L75.91 13.79L75.91 9.51L75.91 9.51Q75.91 8.81 75.50 8.37L75.50 8.37L75.50 8.37Q75.10 7.94 74.42 7.94L74.42 7.94L74.42 7.94Q73.82 7.94 73.41 8.29L73.41 8.29L73.41 8.29Q73.00 8.65 72.93 9.25L72.93 9.25L72.93 13.79L72.93 13.79Q72.93 13.89 72.87 13.94L72.87 13.94L72.87 13.94Q72.81 14 72.72 14L72.72 14L71.79 14L71.79 14Q71.69 14 71.64 13.94L71.64 13.94L71.64 13.94Q71.58 13.89 71.58 13.79L71.58 13.79L71.58 7.08L71.58 7.08Q71.58 6.99 71.64 6.93L71.64 6.93L71.64 6.93Q71.69 6.87 71.79 6.87L71.79 6.87L72.72 6.87L72.72 6.87Q72.81 6.87 72.87 6.93L72.87 6.93L72.87 6.93Q72.93 6.99 72.93 7.08L72.93 7.08L72.93 7.48L72.93 7.48Q72.93 7.52 72.95 7.53L72.95 7.53L72.95 7.53Q72.98 7.55 73.00 7.52L73.00 7.52L73.00 7.52Q73.58 6.78 74.76 6.78L74.76 6.78ZM81.79 6.76L81.79 6.76Q82.64 6.76 83.28 7.06L83.28 7.06L83.28 7.06Q83.92 7.36 84.26 7.90L84.26 7.90L84.26 7.90Q84.60 8.44 84.60 9.13L84.60 9.13L84.60 13.79L84.60 13.79Q84.60 13.89 84.55 13.94L84.55 13.94L84.55 13.94Q84.49 14 84.39 14L84.39 14L83.47 14L83.47 14Q83.37 14 83.31 13.94L83.31 13.94L83.31 13.94Q83.26 13.89 83.26 13.79L83.26 13.79L83.26 13.40L83.26 13.40Q83.26 13.36 83.23 13.34L83.23 13.34L83.23 13.34Q83.20 13.33 83.17 13.36L83.17 13.36L83.17 13.36Q82.78 13.72 82.24 13.92L82.24 13.92L82.24 13.92Q81.70 14.11 81.07 14.11L81.07 14.11L81.07 14.11Q80.05 14.11 79.39 13.59L79.39 13.59L79.39 13.59Q78.74 13.06 78.74 12.00L78.74 12.00L78.74 12.00Q78.74 10.91 79.50 10.28L79.50 10.28L79.50 10.28Q80.26 9.66 81.63 9.66L81.63 9.66L83.19 9.66L83.19 9.66Q83.26 9.66 83.26 9.59L83.26 9.59L83.26 9.23L83.26 9.23Q83.26 8.61 82.90 8.27L82.90 8.27L82.90 8.27Q82.54 7.92 81.82 7.92L81.82 7.92L81.82 7.92Q81.24 7.92 80.88 8.13L80.88 8.13L80.88 8.13Q80.53 8.34 80.42 8.72L80.42 8.72L80.42 8.72Q80.36 8.90 80.18 8.89L80.18 8.89L79.17 8.76L79.17 8.76Q79.07 8.75 79.02 8.70L79.02 8.70L79.02 8.70Q78.96 8.65 78.97 8.58L78.97 8.58L78.97 8.58Q79.10 7.78 79.88 7.27L79.88 7.27L79.88 7.27Q80.65 6.76 81.79 6.76L81.79 6.76ZM81.41 12.98L81.41 12.98Q82.15 12.98 82.70 12.59L82.70 12.59L82.70 12.59Q83.26 12.19 83.26 11.59L83.26 11.59L83.26 10.78L83.26 10.78Q83.26 10.71 83.19 10.71L83.19 10.71L81.89 10.71L81.89 10.71Q81.06 10.71 80.57 11.03L80.57 11.03L80.57 11.03Q80.08 11.35 80.08 11.93L80.08 11.93L80.08 11.93Q80.08 12.45 80.45 12.71L80.45 12.71L80.45 12.71Q80.82 12.98 81.41 12.98L81.41 12.98Z"></path></g><!----><g data-v-423bf9ae="" id="1ba1dd3f-5c9f-40cf-b528-796c965d4846" transform="matrix(1.15214739385605,0,0,1.15214739385605,0.9101335229409209,0)" stroke="none" fill="#000000"><path d="M20.838 78.115H0V32.514h20.838v45.601zm26.187-40.164H26.188v40.164h20.837V37.951zM2.364 12.59v18.112h16.105V0L2.364 12.59z"></path></g><!----></svg>