<svg data-v-423bf9ae="" xmlns="http://www.w3.org/2000/svg" viewBox="0 0 794.4435366849981 60" class="font"><!----><!----><!----><g data-v-423bf9ae="" id="88439369-9ff6-434b-8bcf-db33d59fb5fc" fill="black" transform="matrix(4.735595867300924,0,0,4.735595867300924,-4.451467502080789,-10.276242439665985)"><path d="M0.94 12.29L0.94 2.69L4.10 2.69L5.45 7.98L5.45 7.98Q5.56 8.37 5.71 9.13L5.71 9.13L5.71 9.13Q5.85 9.90 5.89 10.15L5.89 10.15L5.96 10.15L5.96 10.15Q6.01 9.88 6.14 9.11L6.14 9.11L6.14 9.11Q6.27 8.33 6.36 7.98L6.36 7.98L7.70 2.69L10.72 2.69L10.72 12.29L8.69 12.29L8.69 6.17L8.69 6.17Q8.69 5.91 8.73 5.36L8.73 5.36L8.73 5.36Q8.76 4.82 8.78 4.63L8.78 4.63L8.71 4.63L8.41 5.77L6.76 12.29L4.83 12.29L3.18 5.77L2.88 4.63L2.81 4.63L2.81 4.63Q2.83 4.82 2.86 5.38L2.86 5.38L2.86 5.38Q2.90 5.94 2.90 6.17L2.90 6.17L2.90 12.29L0.94 12.29ZM14.35 12.46L14.35 12.46Q13.50 12.46 12.78 12.01L12.78 12.01L12.78 12.01Q12.07 11.56 12.07 10.39L12.07 10.39L12.07 10.39Q12.07 8.97 13.23 8.38L13.23 8.38L13.23 8.38Q14.39 7.78 16.52 7.78L16.52 7.78L16.52 7.27L16.52 7.27Q16.52 6.78 16.30 6.51L16.30 6.51L16.30 6.51Q16.09 6.24 15.48 6.24L15.48 6.24L15.48 6.24Q14.84 6.24 14.57 6.44L14.57 6.44L14.57 6.44Q14.29 6.64 14.29 6.90L14.29 6.90L14.29 7.11L12.45 7.11L12.45 7.11Q12.43 7.03 12.43 6.80L12.43 6.80L12.43 6.80Q12.43 5.88 13.25 5.32L13.25 5.32L13.25 5.32Q14.07 4.76 15.43 4.76L15.43 4.76L15.43 4.76Q16.94 4.76 17.69 5.38L17.69 5.38L17.69 5.38Q18.44 5.99 18.44 7.15L18.44 7.15L18.44 10.40L18.44 10.40Q18.44 10.65 18.58 10.77L18.58 10.77L18.58 10.77Q18.72 10.89 18.93 10.89L18.93 10.89L19.32 10.89L19.32 12.24L19.32 12.24Q18.87 12.46 18.21 12.46L18.21 12.46L18.21 12.46Q17.64 12.46 17.26 12.21L17.26 12.21L17.26 12.21Q16.87 11.96 16.73 11.49L16.73 11.49L16.65 11.49L16.65 11.49Q16.24 11.97 15.71 12.21L15.71 12.21L15.71 12.21Q15.19 12.46 14.35 12.46L14.35 12.46ZM14.95 10.95L14.95 10.95Q15.76 10.95 16.14 10.49L16.14 10.49L16.14 10.49Q16.52 10.04 16.52 9.28L16.52 9.28L16.52 9.06L16.52 9.06Q14.01 9.06 14.01 10.18L14.01 10.18L14.01 10.18Q14.01 10.53 14.25 10.74L14.25 10.74L14.25 10.74Q14.48 10.95 14.95 10.95L14.95 10.95ZM20.44 12.29L20.44 2.17L22.36 2.17L22.36 7.85L24.79 4.93L27.01 4.93L24.57 7.76L27.15 12.29L24.95 12.29L23.34 9.17L22.36 10.12L22.36 12.29L20.44 12.29ZM31.26 12.46L31.26 12.46Q29.48 12.46 28.61 11.52L28.61 11.52L28.61 11.52Q27.73 10.58 27.73 8.61L27.73 8.61L27.73 8.61Q27.73 6.64 28.61 5.70L28.61 5.70L28.61 5.70Q29.48 4.76 31.26 4.76L31.26 4.76L31.26 4.76Q32.90 4.76 33.71 5.71L33.71 5.71L33.71 5.71Q34.52 6.65 34.52 8.61L34.52 8.61L34.52 9.06L29.68 9.06L29.68 9.06Q29.71 10.04 30.07 10.51L30.07 10.51L30.07 10.51Q30.44 10.98 31.29 10.98L31.29 10.98L31.29 10.98Q31.89 10.98 32.26 10.64L32.26 10.64L32.26 10.64Q32.63 10.30 32.63 9.69L32.63 9.69L34.52 9.69L34.52 9.69Q34.52 11.07 33.63 11.77L33.63 11.77L33.63 11.77Q32.73 12.46 31.26 12.46L31.26 12.46ZM29.71 7.78L32.54 7.78L32.54 7.78Q32.54 6.26 31.26 6.26L31.26 6.26L31.26 6.26Q30.53 6.26 30.16 6.64L30.16 6.64L30.16 6.64Q29.79 7.01 29.71 7.78L29.71 7.78ZM38.40 12.46L38.40 12.46Q37.27 12.46 36.62 11.84L36.62 11.84L36.62 11.84Q35.97 11.23 35.97 9.87L35.97 9.87L35.97 4.93L37.88 4.93L37.88 9.46L37.88 9.46Q37.88 10.15 38.21 10.46L38.21 10.46L38.21 10.46Q38.53 10.77 39.16 10.77L39.16 10.77L39.16 10.77Q39.80 10.77 40.23 10.31L40.23 10.31L40.23 10.31Q40.66 9.86 40.66 9.18L40.66 9.18L40.66 4.93L42.57 4.93L42.57 12.29L40.94 12.29L40.80 11.33L40.70 11.33L40.70 11.33Q39.80 12.46 38.40 12.46L38.40 12.46ZM44.56 14.71L44.56 4.93L46.20 4.93L46.33 5.89L46.42 5.89L46.42 5.89Q46.77 5.33 47.36 5.05L47.36 5.05L47.36 5.05Q47.95 4.76 48.66 4.76L48.66 4.76L48.66 4.76Q50.06 4.76 50.83 5.72L50.83 5.72L50.83 5.72Q51.60 6.68 51.60 8.62L51.60 8.62L51.60 8.62Q51.60 10.53 50.83 11.49L50.83 11.49L50.83 11.49Q50.05 12.46 48.76 12.46L48.76 12.46L48.76 12.46Q48.02 12.46 47.45 12.19L47.45 12.19L47.45 12.19Q46.89 11.93 46.56 11.44L46.56 11.44L46.48 11.44L46.48 14.71L44.56 14.71ZM48.05 10.79L48.05 10.79Q48.90 10.79 49.27 10.28L49.27 10.28L49.27 10.28Q49.63 9.77 49.63 8.74L49.63 8.74L49.63 8.48L49.63 8.48Q49.63 7.45 49.27 6.94L49.27 6.94L49.27 6.94Q48.90 6.43 48.05 6.43L48.05 6.43L48.05 6.43Q46.48 6.43 46.48 8.48L46.48 8.48L46.48 8.71L46.48 8.71Q46.48 10.79 48.05 10.79L48.05 10.79ZM56.95 12.29L56.95 2.69L60.93 2.69L60.93 2.69Q63.13 2.69 64.32 3.88L64.32 3.88L64.32 3.88Q65.52 5.08 65.52 7.49L65.52 7.49L65.52 7.49Q65.52 9.90 64.32 11.09L64.32 11.09L64.32 11.09Q63.13 12.29 60.93 12.29L60.93 12.29L56.95 12.29ZM58.98 10.57L60.93 10.57L60.93 10.57Q62.16 10.57 62.80 9.82L62.80 9.82L62.80 9.82Q63.43 9.07 63.43 7.70L63.43 7.70L63.43 7.28L63.43 7.28Q63.43 5.91 62.80 5.16L62.80 5.16L62.80 5.16Q62.16 4.41 60.93 4.41L60.93 4.41L58.98 4.41L58.98 10.57ZM70.15 12.46L70.15 12.46Q68.38 12.46 67.50 11.52L67.50 11.52L67.50 11.52Q66.63 10.58 66.63 8.61L66.63 8.61L66.63 8.61Q66.63 6.64 67.50 5.70L67.50 5.70L67.50 5.70Q68.38 4.76 70.15 4.76L70.15 4.76L70.15 4.76Q71.79 4.76 72.60 5.71L72.60 5.71L72.60 5.71Q73.42 6.65 73.42 8.61L73.42 8.61L73.42 9.06L68.57 9.06L68.57 9.06Q68.60 10.04 68.96 10.51L68.96 10.51L68.96 10.51Q69.33 10.98 70.18 10.98L70.18 10.98L70.18 10.98Q70.78 10.98 71.16 10.64L71.16 10.64L71.16 10.64Q71.53 10.30 71.53 9.69L71.53 9.69L73.42 9.69L73.42 9.69Q73.42 11.07 72.52 11.77L72.52 11.77L72.52 11.77Q71.62 12.46 70.15 12.46L70.15 12.46ZM68.60 7.78L71.43 7.78L71.43 7.78Q71.43 6.26 70.15 6.26L70.15 6.26L70.15 6.26Q69.43 6.26 69.06 6.64L69.06 6.64L69.06 6.64Q68.68 7.01 68.60 7.78L68.60 7.78ZM77.84 12.46L77.84 12.46Q76.30 12.46 75.43 11.82L75.43 11.82L75.43 11.82Q74.55 11.19 74.55 10.12L74.55 10.12L74.56 9.95L76.43 9.95L76.43 10.05L76.43 10.05Q76.44 10.54 76.87 10.76L76.87 10.76L76.87 10.76Q77.29 10.98 77.91 10.98L77.91 10.98L77.91 10.98Q78.48 10.98 78.89 10.82L78.89 10.82L78.89 10.82Q79.30 10.67 79.30 10.32L79.30 10.32L79.30 10.32Q79.30 9.93 78.88 9.73L78.88 9.73L78.88 9.73Q78.47 9.53 77.59 9.34L77.59 9.34L77.59 9.34Q76.68 9.13 76.10 8.91L76.10 8.91L76.10 8.91Q75.53 8.69 75.11 8.23L75.11 8.23L75.11 8.23Q74.69 7.77 74.69 7L74.69 7L74.69 7Q74.69 5.92 75.59 5.34L75.59 5.34L75.59 5.34Q76.50 4.76 77.92 4.76L77.92 4.76L77.92 4.76Q79.25 4.76 80.12 5.30L80.12 5.30L80.12 5.30Q80.99 5.84 80.99 6.76L80.99 6.76L80.98 7.08L79.11 7.08L79.11 7.06L79.11 7.06Q79.10 6.65 78.76 6.45L78.76 6.45L78.76 6.45Q78.43 6.24 77.85 6.24L77.85 6.24L77.85 6.24Q77.28 6.24 76.94 6.40L76.94 6.40L76.94 6.40Q76.61 6.55 76.61 6.83L76.61 6.83L76.61 6.83Q76.61 7.18 76.99 7.35L76.99 7.35L76.99 7.35Q77.38 7.52 78.23 7.69L78.23 7.69L78.23 7.69Q79.17 7.90 79.76 8.11L79.76 8.11L79.76 8.11Q80.35 8.32 80.78 8.79L80.78 8.79L80.78 8.79Q81.21 9.27 81.21 10.08L81.21 10.08L81.21 10.08Q81.21 12.46 77.84 12.46L77.84 12.46ZM82.68 3.91L82.68 2.17L84.60 2.17L84.60 3.91L82.68 3.91ZM82.68 12.29L82.68 4.93L84.60 4.93L84.60 12.29L82.68 12.29ZM87.75 14.84L87.75 14.84Q86.98 14.84 86.45 14.36L86.45 14.36L86.45 14.36Q85.92 13.89 85.92 13.15L85.92 13.15L85.92 13.15Q85.92 12.17 87.05 11.65L87.05 11.65L87.05 11.65Q86.34 11.28 86.34 10.54L86.34 10.54L86.34 10.54Q86.34 10.08 86.70 9.74L86.70 9.74L86.70 9.74Q87.07 9.39 87.64 9.25L87.64 9.25L87.64 9.25Q86.56 8.60 86.56 7.27L86.56 7.27L86.56 7.27Q86.56 6.10 87.41 5.43L87.41 5.43L87.41 5.43Q88.26 4.76 89.82 4.76L89.82 4.76L89.82 4.76Q90.68 4.76 91.31 4.97L91.31 4.97L91.31 4.97Q91.73 4.70 91.92 4.33L91.92 4.33L91.92 4.33Q92.11 3.96 92.11 3.70L92.11 3.70L93.98 3.70L93.98 3.70Q93.98 4.47 93.57 4.93L93.57 4.93L93.57 4.93Q93.16 5.40 92.40 5.57L92.40 5.57L92.40 5.57Q93.10 6.23 93.10 7.27L93.10 7.27L93.10 7.27Q93.10 8.43 92.28 9.10L92.28 9.10L92.28 9.10Q91.46 9.77 89.94 9.77L89.94 9.77L88.82 9.77L88.82 9.77Q88.56 9.77 88.42 9.88L88.42 9.88L88.42 9.88Q88.27 10.00 88.27 10.19L88.27 10.19L88.27 10.19Q88.27 10.36 88.40 10.48L88.40 10.48L88.40 10.48Q88.52 10.60 88.73 10.60L88.73 10.60L92.08 10.60L92.08 10.60Q92.89 10.60 93.44 11.14L93.44 11.14L93.44 11.14Q93.98 11.69 93.98 12.57L93.98 12.57L93.98 12.57Q93.98 13.24 93.62 13.76L93.62 13.76L93.62 13.76Q93.25 14.28 92.62 14.56L92.62 14.56L92.62 14.56Q91.99 14.84 91.24 14.84L91.24 14.84L87.75 14.84ZM89.82 8.47L89.82 8.47Q90.50 8.47 90.85 8.15L90.85 8.15L90.85 8.15Q91.20 7.84 91.20 7.27L91.20 7.27L91.20 7.27Q91.20 6.69 90.85 6.38L90.85 6.38L90.85 6.38Q90.50 6.06 89.82 6.06L89.82 6.06L89.82 6.06Q89.15 6.06 88.81 6.38L88.81 6.38L88.81 6.38Q88.47 6.69 88.47 7.27L88.47 7.27L88.47 7.27Q88.47 7.84 88.81 8.15L88.81 8.15L88.81 8.15Q89.15 8.47 89.82 8.47L89.82 8.47ZM88.59 13.51L91.21 13.51L91.21 13.51Q91.57 13.51 91.81 13.33L91.81 13.33L91.81 13.33Q92.05 13.15 92.05 12.85L92.05 12.85L92.05 12.85Q92.05 12.54 91.83 12.38L91.83 12.38L91.83 12.38Q91.62 12.21 91.29 12.21L91.29 12.21L88.59 12.21L88.59 12.21Q88.28 12.21 88.07 12.39L88.07 12.39L88.07 12.39Q87.85 12.57 87.85 12.85L87.85 12.85L87.85 12.85Q87.85 13.15 88.06 13.33L88.06 13.33L88.06 13.33Q88.27 13.51 88.59 13.51L88.59 13.51ZM95.13 12.29L95.13 4.93L96.77 4.93L96.91 5.89L97.01 5.89L97.01 5.89Q97.90 4.76 99.30 4.76L99.30 4.76L99.30 4.76Q100.44 4.76 101.09 5.38L101.09 5.38L101.09 5.38Q101.74 5.99 101.74 7.35L101.74 7.35L101.74 12.29L99.82 12.29L99.82 7.76L99.82 7.76Q99.82 7.07 99.50 6.76L99.50 6.76L99.50 6.76Q99.18 6.45 98.55 6.45L98.55 6.45L98.55 6.45Q97.90 6.45 97.48 6.91L97.48 6.91L97.48 6.91Q97.05 7.36 97.05 8.04L97.05 8.04L97.05 12.29L95.13 12.29ZM106.62 12.46L106.62 12.46Q105.08 12.46 104.21 11.82L104.21 11.82L104.21 11.82Q103.33 11.19 103.33 10.12L103.33 10.12L103.35 9.95L105.21 9.95L105.21 10.05L105.21 10.05Q105.22 10.54 105.65 10.76L105.65 10.76L105.65 10.76Q106.08 10.98 106.69 10.98L106.69 10.98L106.69 10.98Q107.27 10.98 107.67 10.82L107.67 10.82L107.67 10.82Q108.08 10.67 108.08 10.32L108.08 10.32L108.08 10.32Q108.08 9.93 107.67 9.73L107.67 9.73L107.67 9.73Q107.25 9.53 106.37 9.34L106.37 9.34L106.37 9.34Q105.46 9.13 104.89 8.91L104.89 8.91L104.89 8.91Q104.31 8.69 103.89 8.23L103.89 8.23L103.89 8.23Q103.47 7.77 103.47 7L103.47 7L103.47 7Q103.47 5.92 104.38 5.34L104.38 5.34L104.38 5.34Q105.28 4.76 106.71 4.76L106.71 4.76L106.71 4.76Q108.04 4.76 108.91 5.30L108.91 5.30L108.91 5.30Q109.77 5.84 109.77 6.76L109.77 6.76L109.76 7.08L107.90 7.08L107.90 7.06L107.90 7.06Q107.88 6.65 107.55 6.45L107.55 6.45L107.55 6.45Q107.21 6.24 106.64 6.24L106.64 6.24L106.64 6.24Q106.06 6.24 105.73 6.40L105.73 6.40L105.73 6.40Q105.39 6.55 105.39 6.83L105.39 6.83L105.39 6.83Q105.39 7.18 105.78 7.35L105.78 7.35L105.78 7.35Q106.16 7.52 107.02 7.69L107.02 7.69L107.02 7.69Q107.95 7.90 108.54 8.11L108.54 8.11L108.54 8.11Q109.13 8.32 109.56 8.79L109.56 8.79L109.56 8.79Q110.00 9.27 110.00 10.08L110.00 10.08L110.00 10.08Q110.00 12.46 106.62 12.46L106.62 12.46ZM115.30 12.29L115.30 2.69L120.81 2.69L120.81 2.69Q121.56 2.69 122.18 2.99L122.18 2.99L122.18 2.99Q122.79 3.29 123.14 3.83L123.14 3.83L123.14 3.83Q123.49 4.37 123.49 5.07L123.49 5.07L123.49 5.07Q123.49 5.87 123.05 6.45L123.05 6.45L123.05 6.45Q122.61 7.03 121.93 7.25L121.93 7.25L121.93 7.31L121.93 7.31Q122.74 7.46 123.25 8.10L123.25 8.10L123.25 8.10Q123.76 8.74 123.76 9.60L123.76 9.60L123.76 9.60Q123.76 10.91 122.93 11.60L122.93 11.60L122.93 11.60Q122.09 12.29 120.81 12.29L120.81 12.29L115.30 12.29ZM117.35 6.52L120.23 6.52L120.23 6.52Q120.79 6.52 121.10 6.24L121.10 6.24L121.10 6.24Q121.41 5.95 121.41 5.50L121.41 5.50L121.41 5.50Q121.41 4.97 121.12 4.69L121.12 4.69L121.12 4.69Q120.83 4.41 120.33 4.41L120.33 4.41L117.35 4.41L117.35 6.52ZM117.35 10.57L120.47 10.57L120.47 10.57Q121.00 10.57 121.34 10.26L121.34 10.26L121.34 10.26Q121.67 9.95 121.67 9.38L121.67 9.38L121.67 9.38Q121.67 8.86 121.34 8.54L121.34 8.54L121.34 8.54Q121.00 8.22 120.36 8.22L120.36 8.22L117.35 8.22L117.35 10.57ZM126.59 14.84L126.59 14.84Q126.22 14.84 125.93 14.80L125.93 14.80L125.93 14.80Q125.64 14.76 125.48 14.71L125.48 14.71L125.48 14.71Q125.31 14.67 125.27 14.66L125.27 14.66L125.27 13.31L126.18 13.31L126.18 13.31Q126.67 13.31 126.98 13.08L126.98 13.08L126.98 13.08Q127.29 12.84 127.48 12.29L127.48 12.29L124.60 4.93L126.60 4.93L127.99 8.39L127.99 8.39Q128.13 8.75 128.30 9.41L128.30 9.41L128.30 9.41Q128.46 10.08 128.51 10.30L128.51 10.30L128.58 10.30L128.58 10.30Q128.63 10.09 128.78 9.53L128.78 9.53L128.78 9.53Q128.93 8.97 129.09 8.40L129.09 8.40L130.19 4.93L132.13 4.93L129.65 11.91L129.65 11.91Q129.32 12.84 128.95 13.46L128.95 13.46L128.95 13.46Q128.59 14.08 128.01 14.46L128.01 14.46L128.01 14.46Q127.43 14.84 126.59 14.84L126.59 14.84ZM137.09 12.29L137.09 2.69L139.12 2.69L139.12 10.53L144.30 10.53L144.30 12.29L137.09 12.29ZM147.39 12.46L147.39 12.46Q146.54 12.46 145.82 12.01L145.82 12.01L145.82 12.01Q145.11 11.56 145.11 10.39L145.11 10.39L145.11 10.39Q145.11 8.97 146.27 8.38L146.27 8.38L146.27 8.38Q147.43 7.78 149.56 7.78L149.56 7.78L149.56 7.27L149.56 7.27Q149.56 6.78 149.35 6.51L149.35 6.51L149.35 6.51Q149.13 6.24 148.53 6.24L148.53 6.24L148.53 6.24Q147.88 6.24 147.61 6.44L147.61 6.44L147.61 6.44Q147.34 6.64 147.34 6.90L147.34 6.90L147.34 7.11L145.49 7.11L145.49 7.11Q145.47 7.03 145.47 6.80L145.47 6.80L145.47 6.80Q145.47 5.88 146.29 5.32L146.29 5.32L146.29 5.32Q147.11 4.76 148.47 4.76L148.47 4.76L148.47 4.76Q149.98 4.76 150.73 5.38L150.73 5.38L150.73 5.38Q151.48 5.99 151.48 7.15L151.48 7.15L151.48 10.40L151.48 10.40Q151.48 10.65 151.62 10.77L151.62 10.77L151.62 10.77Q151.76 10.89 151.97 10.89L151.97 10.89L152.36 10.89L152.36 12.24L152.36 12.24Q151.91 12.46 151.26 12.46L151.26 12.46L151.26 12.46Q150.68 12.46 150.30 12.21L150.30 12.21L150.30 12.21Q149.91 11.96 149.77 11.49L149.77 11.49L149.69 11.49L149.69 11.49Q149.28 11.97 148.76 12.21L148.76 12.21L148.76 12.21Q148.23 12.46 147.39 12.46L147.39 12.46ZM147.99 10.95L147.99 10.95Q148.81 10.95 149.18 10.49L149.18 10.49L149.18 10.49Q149.56 10.04 149.56 9.28L149.56 9.28L149.56 9.06L149.56 9.06Q147.06 9.06 147.06 10.18L147.06 10.18L147.06 10.18Q147.06 10.53 147.29 10.74L147.29 10.74L147.29 10.74Q147.52 10.95 147.99 10.95L147.99 10.95ZM153.48 12.29L153.48 4.93L155.12 4.93L155.26 5.89L155.36 5.89L155.36 5.89Q156.25 4.76 157.65 4.76L157.65 4.76L157.65 4.76Q158.79 4.76 159.44 5.38L159.44 5.38L159.44 5.38Q160.09 5.99 160.09 7.35L160.09 7.35L160.09 12.29L158.17 12.29L158.17 7.76L158.17 7.76Q158.17 7.07 157.85 6.76L157.85 6.76L157.85 6.76Q157.53 6.45 156.90 6.45L156.90 6.45L156.90 6.45Q156.25 6.45 155.83 6.91L155.83 6.91L155.83 6.91Q155.40 7.36 155.40 8.04L155.40 8.04L155.40 12.29L153.48 12.29ZM163.73 12.46L163.73 12.46Q162.88 12.46 162.16 12.01L162.16 12.01L162.16 12.01Q161.45 11.56 161.45 10.39L161.45 10.39L161.45 10.39Q161.45 8.97 162.61 8.38L162.61 8.38L162.61 8.38Q163.77 7.78 165.90 7.78L165.90 7.78L165.90 7.27L165.90 7.27Q165.90 6.78 165.68 6.51L165.68 6.51L165.68 6.51Q165.47 6.24 164.86 6.24L164.86 6.24L164.86 6.24Q164.22 6.24 163.95 6.44L163.95 6.44L163.95 6.44Q163.67 6.64 163.67 6.90L163.67 6.90L163.67 7.11L161.83 7.11L161.83 7.11Q161.81 7.03 161.81 6.80L161.81 6.80L161.81 6.80Q161.81 5.88 162.63 5.32L162.63 5.32L162.63 5.32Q163.45 4.76 164.81 4.76L164.81 4.76L164.81 4.76Q166.32 4.76 167.07 5.38L167.07 5.38L167.07 5.38Q167.82 5.99 167.82 7.15L167.82 7.15L167.82 10.40L167.82 10.40Q167.82 10.65 167.96 10.77L167.96 10.77L167.96 10.77Q168.10 10.89 168.31 10.89L168.31 10.89L168.70 10.89L168.70 12.24L168.70 12.24Q168.25 12.46 167.59 12.46L167.59 12.46L167.59 12.46Q167.02 12.46 166.64 12.21L166.64 12.21L166.64 12.21Q166.25 11.96 166.11 11.49L166.11 11.49L166.03 11.49L166.03 11.49Q165.62 11.97 165.10 12.21L165.10 12.21L165.10 12.21Q164.57 12.46 163.73 12.46L163.73 12.46ZM164.33 10.95L164.33 10.95Q165.14 10.95 165.52 10.49L165.52 10.49L165.52 10.49Q165.90 10.04 165.90 9.28L165.90 9.28L165.90 9.06L165.90 9.06Q163.39 9.06 163.39 10.18L163.39 10.18L163.39 10.18Q163.39 10.53 163.63 10.74L163.63 10.74L163.63 10.74Q163.86 10.95 164.33 10.95L164.33 10.95Z"></path></g><!----><!----></svg>